<?xml version="1.0" standalone="no"?>
<!DOCTYPE svg PUBLIC "-//W3C//DTD SVG 20010904//EN"
 "http://www.w3.org/TR/2001/REC-SVG-20010904/DTD/svg10.dtd">
<svg version="1.0" xmlns="http://www.w3.org/2000/svg"
 width="700.000000pt" height="700.000000pt" viewBox="0 0 700.000000 700.000000"
 preserveAspectRatio="xMidYMid meet">
<metadata>
Created by potrace 1.11, written by Peter Selinger 2001-2013
</metadata>
<g transform="translate(0.000000,700.000000) scale(0.100000,-0.100000)"
fill="#000000" stroke="none">
<path d="M3179 6993 c-1 -4 -1 -11 -1 -14 1 -7 -43 -3 -57 5 -5 4 -12 2 -15
-3 -3 -5 -31 -9 -61 -9 -30 1 -61 -5 -69 -11 -8 -7 -33 -12 -55 -13 -22 0 -39
-3 -37 -7 3 -4 -5 -8 -17 -8 -17 -2 -19 0 -7 7 9 6 10 10 3 10 -6 0 -15 -4
-18 -10 -3 -5 -15 -10 -26 -10 -10 0 -19 -6 -19 -12 0 -9 -3 -9 -8 -3 -9 14
-38 12 -35 -1 1 -6 -4 -11 -12 -11 -8 0 -12 3 -10 7 2 4 -2 7 -10 7 -8 0 -12
-4 -9 -9 3 -4 -4 -9 -15 -9 -33 -2 -39 -4 -47 -11 -11 -11 -36 -10 -29 2 3 5
-6 3 -20 -4 -14 -7 -36 -12 -50 -10 -14 1 -23 -1 -20 -6 3 -5 -8 -11 -25 -15
-19 -4 -28 -11 -24 -18 5 -8 2 -8 -7 1 -7 6 -18 12 -23 12 -6 0 -4 -5 4 -10
11 -7 8 -10 -16 -10 -16 0 -34 -4 -40 -9 -5 -5 -18 -11 -29 -13 -11 -1 -23 -7
-27 -13 -4 -5 -16 -11 -28 -11 -47 -3 -51 -4 -45 -14 3 -5 2 -10 -4 -10 -5 0
-12 6 -14 13 -4 10 -6 10 -6 0 -1 -7 -13 -13 -27 -13 -14 0 -23 -4 -20 -9 3
-5 -1 -12 -10 -15 -12 -5 -15 -2 -10 11 4 10 -5 5 -19 -12 -15 -16 -24 -24
-20 -17 3 6 1 12 -4 12 -6 0 -11 -4 -11 -10 0 -5 -13 -10 -30 -10 -22 0 -28
-4 -24 -15 4 -10 0 -13 -16 -10 -12 2 -23 -2 -26 -10 -3 -7 -14 -12 -25 -10
-12 3 -19 -2 -20 -13 0 -13 -2 -13 -6 -3 -4 10 -9 8 -19 -10 -7 -13 -13 -18
-14 -11 0 6 -5 12 -11 12 -5 0 -7 -4 -4 -10 3 -5 -6 -12 -20 -16 -14 -3 -25
-10 -25 -15 0 -5 -5 -9 -12 -9 -6 0 -21 -8 -32 -17 -20 -17 -20 -17 -7 0 8 10
9 17 3 17 -6 0 -14 -9 -17 -20 -4 -11 -10 -18 -15 -15 -9 6 -50 -13 -61 -28
-3 -5 -10 -9 -15 -10 -5 -1 -8 -5 -7 -9 1 -3 -11 -9 -27 -13 -17 -4 -28 -11
-24 -16 3 -5 -7 -9 -23 -9 -22 0 -25 -2 -13 -10 12 -8 10 -10 -11 -10 -16 0
-33 -10 -47 -30 -14 -18 -28 -27 -37 -24 -10 4 -15 0 -15 -12 0 -16 -2 -17
-10 -4 -8 12 -10 10 -10 -10 0 -20 -2 -22 -10 -10 -6 10 -10 11 -10 3 0 -7 -7
-13 -15 -13 -8 0 -15 -5 -15 -12 0 -6 -3 -8 -7 -5 -3 4 -12 -1 -20 -11 -8 -9
-11 -11 -7 -3 5 9 3 12 -4 7 -7 -4 -12 -14 -12 -23 0 -9 -3 -14 -6 -10 -3 3
-18 -5 -33 -19 -14 -13 -31 -22 -38 -20 -8 3 -10 -1 -6 -11 5 -12 2 -15 -10
-10 -11 4 -14 2 -10 -9 3 -9 -2 -14 -16 -14 -12 0 -21 -6 -21 -16 0 -9 -5 -12
-12 -8 -8 5 -9 2 -4 -11 6 -16 4 -16 -11 -4 -10 7 -15 10 -11 5 8 -10 -22 -46
-40 -46 -7 0 -10 -4 -7 -10 3 -5 -1 -10 -10 -10 -8 0 -18 -7 -21 -15 -4 -8
-11 -12 -18 -8 -6 4 -6 0 2 -9 11 -13 10 -16 -5 -14 -10 0 -17 -5 -15 -12 1
-8 -2 -11 -7 -8 -12 8 -43 -23 -35 -35 3 -5 0 -8 -8 -7 -7 2 -12 -3 -10 -11 3
-12 1 -12 -13 -1 -9 7 -15 9 -14 4 1 -5 0 -12 -1 -16 -1 -5 -3 -12 -4 -18 0
-5 -5 -10 -11 -11 -5 0 -14 -7 -18 -15 -4 -8 -15 -14 -22 -14 -14 0 -20 -12
-16 -33 1 -5 -3 -5 -9 -2 -7 4 -14 -2 -17 -14 -3 -12 -12 -21 -19 -21 -8 0
-19 -11 -26 -25 -6 -13 -16 -22 -21 -18 -6 4 -8 0 -4 -10 3 -10 2 -17 -3 -17
-5 0 -11 8 -13 18 -4 15 -5 15 -6 -2 0 -11 -8 -28 -18 -38 -9 -10 -11 -18 -5
-18 6 0 13 5 15 10 3 6 4 5 3 -2 -1 -7 -12 -14 -24 -16 -12 -2 -22 -12 -24
-25 -2 -12 -9 -21 -16 -19 -6 1 -12 -5 -12 -13 0 -8 -5 -15 -11 -15 -5 0 -7
-5 -3 -12 5 -8 2 -9 -10 -5 -9 4 -15 3 -11 -2 3 -5 -1 -16 -9 -24 -8 -8 -12
-17 -9 -21 6 -6 -13 -10 -31 -7 -5 1 -3 -6 5 -15 8 -10 9 -15 2 -11 -7 4 -16
-4 -24 -22 -7 -16 -18 -27 -24 -23 -5 3 -3 -3 5 -13 9 -11 10 -16 2 -11 -7 4
-15 1 -18 -8 -3 -9 -10 -13 -15 -10 -5 3 -9 -9 -9 -25 0 -21 -5 -31 -15 -31
-8 0 -15 -7 -15 -16 0 -8 -5 -12 -10 -9 -9 5 -15 -16 -11 -38 1 -5 -3 -6 -9
-2 -5 3 -10 0 -10 -9 0 -8 -6 -17 -12 -19 -10 -4 -9 -8 2 -16 13 -9 12 -11 -5
-12 -11 -1 -24 -1 -29 0 -5 1 -3 -6 5 -15 9 -12 9 -15 2 -10 -8 4 -13 1 -13
-9 0 -10 -5 -13 -12 -9 -8 5 -7 0 2 -11 12 -15 12 -17 1 -10 -11 6 -13 4 -8
-8 3 -9 1 -19 -5 -23 -7 -4 -8 -3 -4 4 4 7 2 12 -5 12 -6 0 -9 -8 -6 -19 3
-13 -1 -21 -14 -24 -14 -4 -19 -14 -19 -42 0 -31 -2 -35 -14 -26 -11 9 -13 6
-11 -19 2 -22 -1 -28 -9 -21 -9 7 -12 1 -14 -22 -2 -17 -9 -38 -16 -47 -7 -8
-16 -28 -20 -43 -4 -15 -11 -25 -15 -22 -5 3 -7 -3 -5 -13 3 -9 -4 -27 -15
-39 -14 -15 -17 -23 -8 -26 9 -4 9 -6 0 -6 -7 -1 -13 -7 -13 -15 0 -7 -7 -19
-15 -26 -13 -11 -13 -15 -3 -21 10 -7 10 -9 1 -9 -7 0 -13 -12 -13 -27 0 -22
-2 -25 -11 -13 -8 12 -9 12 -7 -5 1 -11 -1 -26 -5 -32 -5 -7 -5 -13 -2 -13 4
0 -1 -7 -10 -16 -13 -14 -14 -19 -4 -25 10 -6 9 -10 -5 -15 -14 -5 -15 -9 -4
-15 10 -7 9 -9 -4 -9 -14 0 -18 -8 -18 -36 0 -21 -4 -33 -10 -29 -13 8 -8 -18
5 -27 6 -5 3 -8 -7 -8 -11 0 -15 -7 -14 -25 2 -13 0 -22 -5 -20 -4 3 -10 1
-14 -5 -3 -5 0 -10 7 -10 9 0 9 -3 -2 -10 -13 -9 -13 -10 0 -10 12 0 12 -2 2
-9 -7 -4 -14 -18 -15 -29 -1 -12 -5 -22 -9 -22 -4 0 -8 -5 -8 -11 0 -5 5 -7
11 -3 8 5 8 1 0 -14 -6 -11 -11 -32 -11 -47 0 -18 -4 -24 -12 -19 -10 6 -10 5
-1 -7 10 -12 9 -20 -3 -37 -12 -17 -12 -22 -2 -22 9 0 9 -3 -2 -10 -8 -5 -11
-10 -6 -10 4 0 1 -12 -9 -26 -9 -15 -12 -23 -6 -20 6 4 11 2 11 -3 0 -6 -4
-11 -10 -11 -5 0 -10 -25 -10 -56 0 -34 -4 -53 -10 -49 -5 3 -10 1 -10 -4 0
-6 5 -11 10 -11 6 0 10 -5 10 -11 0 -5 -4 -7 -10 -4 -5 3 -10 2 -10 -4 0 -5 6
-12 13 -14 6 -3 3 -6 -8 -6 -17 -1 -17 -3 -5 -11 9 -6 10 -10 3 -10 -7 0 -10
-13 -9 -32 2 -18 -2 -39 -8 -47 -7 -10 -8 -13 0 -8 6 4 10 -2 8 -16 -1 -12 -3
-29 -3 -37 -1 -11 -3 -12 -9 -3 -5 8 -8 -3 -9 -27 0 -24 4 -40 11 -40 6 0 4
-5 -4 -10 -13 -9 -13 -11 0 -20 8 -5 10 -10 3 -10 -16 0 -17 -358 0 -379 8
-10 8 -13 1 -8 -9 5 -12 -14 -10 -67 1 -61 4 -72 16 -68 13 5 13 3 1 -11 -7
-9 -10 -17 -5 -17 5 0 9 -33 9 -74 0 -55 3 -72 12 -69 7 3 13 0 13 -5 0 -6 -8
-13 -17 -15 -17 -4 -17 -5 0 -6 14 -1 17 -11 18 -53 1 -29 1 -57 0 -61 -1 -5
3 -6 9 -2 5 3 10 -1 10 -10 0 -9 -5 -13 -11 -9 -6 3 -3 -5 6 -20 10 -14 13
-26 9 -26 -5 0 -2 -5 6 -10 13 -9 13 -10 0 -10 -13 0 -13 -1 0 -10 11 -7 11
-10 2 -10 -7 0 -10 -5 -7 -10 4 -6 11 -8 16 -4 6 3 10 0 8 -7 -1 -8 -1 -29 0
-47 1 -24 5 -31 13 -26 9 5 9 2 -1 -9 -10 -13 -11 -20 -2 -31 7 -8 13 -33 14
-55 1 -21 5 -37 8 -35 11 6 22 -54 13 -68 -5 -9 -2 -8 10 1 9 8 16 10 15 5 -5
-28 2 -74 11 -69 6 4 10 -5 10 -20 0 -18 4 -24 13 -19 9 6 9 4 0 -7 -15 -16
-17 -33 -3 -24 9 5 15 -15 11 -37 0 -5 3 -8 8 -8 5 0 8 -8 7 -17 -2 -10 1 -21
7 -24 5 -4 10 -20 10 -37 1 -17 5 -28 9 -26 9 6 21 -33 13 -46 -4 -6 1 -7 11
-3 14 5 16 3 11 -11 -4 -10 -1 -19 8 -22 8 -4 15 -17 15 -29 0 -13 7 -31 16
-39 12 -12 12 -16 2 -16 -11 0 -11 -2 0 -9 7 -4 12 -14 10 -22 -2 -8 2 -13 8
-12 7 1 15 -14 19 -34 5 -28 9 -33 17 -22 7 10 8 7 5 -13 -3 -19 0 -25 10 -21
9 4 13 -4 13 -27 0 -18 4 -29 10 -25 6 3 10 -1 10 -9 0 -9 5 -16 11 -16 5 0 8
-4 4 -9 -3 -5 2 -17 12 -26 14 -14 14 -18 2 -26 -10 -6 -8 -9 10 -9 13 0 22
-3 18 -6 -3 -4 1 -13 9 -21 8 -9 13 -22 10 -29 -3 -8 -1 -14 3 -14 5 0 12 6
14 13 3 6 6 -3 6 -21 1 -22 5 -31 13 -26 7 4 8 3 4 -4 -4 -6 2 -19 13 -29 11
-9 18 -20 15 -25 -3 -4 2 -8 10 -8 9 0 16 -5 16 -11 0 -5 -6 -7 -12 -4 -7 4
-5 0 4 -8 10 -8 14 -18 10 -22 -4 -5 1 -5 10 -2 10 3 17 3 17 -1 -4 -22 2 -42
11 -37 6 3 10 -4 10 -17 0 -18 2 -20 10 -8 7 11 10 7 10 -17 0 -20 5 -33 13
-33 6 0 26 -14 42 -32 17 -18 24 -29 18 -24 -9 5 -11 2 -7 -8 3 -9 12 -16 20
-16 8 0 13 -3 13 -7 -3 -21 3 -31 27 -42 16 -7 24 -17 20 -26 -3 -8 0 -14 6
-12 7 1 12 -5 13 -13 0 -9 8 -14 20 -12 16 3 17 2 6 -12 -11 -13 -11 -16 0
-17 8 -1 18 -1 22 0 5 1 6 -3 2 -9 -3 -5 2 -10 12 -10 13 0 14 -3 5 -8 -9 -6
-6 -12 13 -20 14 -6 25 -19 25 -27 0 -9 4 -14 9 -10 5 3 12 -4 16 -15 3 -11
11 -20 16 -20 6 0 7 -5 3 -11 -4 -7 -1 -10 7 -7 17 6 39 -15 39 -36 0 -9 7
-16 15 -16 8 0 15 -6 15 -14 0 -10 7 -13 21 -11 18 4 19 2 7 -12 -9 -12 -9
-15 0 -9 7 4 15 1 18 -8 3 -9 16 -16 28 -17 11 0 16 -3 9 -5 -18 -8 17 -44 42
-44 16 0 17 -2 5 -10 -14 -9 -7 -14 13 -11 4 1 10 -6 13 -14 4 -8 16 -15 28
-15 16 0 18 -2 7 -9 -11 -7 -9 -10 10 -13 13 -1 29 -13 35 -25 6 -13 14 -20
17 -16 4 3 7 1 7 -6 0 -7 4 -9 10 -6 5 3 10 1 10 -4 0 -6 7 -11 15 -11 9 0 18
-7 21 -15 4 -8 14 -15 23 -16 10 0 12 -2 3 -6 -16 -6 31 -45 50 -41 7 2 12 -3
10 -10 -1 -8 2 -11 7 -8 5 4 13 0 18 -8 4 -7 17 -16 28 -18 11 -2 19 -10 17
-17 -1 -7 2 -10 8 -6 5 3 10 1 10 -5 0 -6 5 -8 10 -5 6 3 10 1 10 -4 0 -6 9
-11 20 -11 11 0 20 -7 20 -16 0 -8 4 -12 10 -9 5 3 10 1 10 -5 0 -6 4 -8 10
-5 5 3 10 1 10 -5 0 -6 4 -8 10 -5 5 3 10 -1 10 -9 0 -11 10 -16 31 -16 24 0
30 -4 25 -16 -3 -8 -2 -12 4 -9 6 3 13 -1 16 -9 3 -9 17 -16 31 -16 13 0 21
-4 18 -10 -3 -5 3 -10 14 -10 12 0 21 -5 21 -11 0 -5 4 -8 9 -5 4 3 19 -3 31
-14 13 -11 37 -20 54 -20 24 0 27 -3 16 -10 -13 -9 -7 -14 13 -11 4 0 7 -7 8
-16 0 -15 2 -15 9 2 7 18 8 19 15 3 4 -10 17 -18 30 -18 31 0 81 -26 63 -33
-7 -3 -3 -6 10 -6 12 -1 25 0 28 2 3 1 10 -6 15 -16 7 -11 22 -17 44 -17 23 0
35 -5 35 -14 0 -9 10 -13 30 -11 17 1 28 -2 27 -9 -1 -6 13 -12 31 -14 18 -2
30 -8 27 -13 -4 -5 10 -9 29 -9 20 0 36 -5 36 -11 0 -5 4 -8 9 -4 5 3 12 1 16
-5 4 -6 11 -8 16 -4 6 3 20 -2 31 -13 12 -10 19 -13 15 -7 -3 6 0 11 8 11 8 0
12 -4 9 -9 -3 -4 11 -8 31 -8 21 0 38 -6 41 -14 3 -8 18 -12 38 -11 27 1 33
-2 28 -14 -5 -14 -4 -14 12 -2 14 12 19 12 25 2 5 -7 14 -12 22 -11 32 5 60
-1 54 -10 -4 -6 10 -10 35 -10 30 0 39 -3 34 -12 -6 -10 -4 -10 7 0 18 17 29
15 30 -5 0 -15 2 -15 9 2 5 11 9 14 9 7 1 -7 6 -10 11 -7 6 3 10 3 10 -2 0 -4
21 -8 46 -7 30 0 48 -4 51 -13 8 -20 23 -16 17 5 -5 15 -5 16 5 0 8 -12 27
-16 82 -17 38 0 75 -4 82 -8 14 -9 68 -12 62 -3 -2 3 6 7 18 7 16 2 18 0 8 -7
-9 -5 85 -8 225 -8 168 0 241 4 246 12 6 8 8 8 8 -1 0 -7 5 -13 11 -13 5 0 8
4 5 8 -3 5 1 9 9 9 8 0 12 -3 10 -7 -2 -3 6 -7 18 -7 17 -2 18 0 7 7 -9 6 16
9 70 9 57 0 86 4 91 13 7 10 9 10 9 -1 0 -12 3 -12 12 -3 7 7 17 12 23 12 5 0
4 -4 -4 -9 -9 -6 -4 -8 15 -8 16 0 23 2 17 4 -20 7 -15 19 6 19 11 0 17 -5 13
-11 -3 -6 0 -5 9 1 8 6 28 10 45 9 23 -1 31 2 27 12 -3 7 -1 13 5 13 6 0 13
-6 15 -12 4 -10 6 -10 6 0 1 8 18 12 51 12 28 0 50 5 50 10 0 6 13 10 29 10
17 0 32 4 35 9 3 4 18 6 32 3 19 -3 25 -1 20 6 -5 8 -1 10 9 6 8 -4 23 0 32 7
9 8 14 9 10 3 -3 -6 1 -11 9 -11 8 0 13 5 10 12 -2 7 9 11 30 12 18 1 41 8 50
17 9 10 19 14 22 11 4 -3 0 -10 -8 -15 -8 -6 -10 -10 -4 -10 6 0 17 7 24 15 7
8 16 12 21 9 5 -3 9 3 9 13 0 10 4 14 8 8 9 -13 35 -18 27 -5 -3 5 3 10 14 10
10 0 22 6 24 13 4 9 6 9 6 0 1 -7 6 -13 12 -13 5 0 7 5 4 10 -4 6 5 10 20 10
18 0 24 4 19 13 -6 9 -4 9 7 1 10 -9 21 -7 41 6 16 9 26 19 23 22 -3 2 2 5 10
5 8 0 11 -5 8 -11 -3 -6 0 -5 8 2 7 6 21 12 30 12 9 0 22 7 29 15 7 9 20 13
28 10 11 -4 12 -2 4 8 -9 10 -4 13 19 15 17 1 41 9 53 17 12 8 26 12 31 8 4
-5 5 1 1 11 -5 16 -4 17 8 7 11 -10 16 -9 23 4 5 9 19 17 31 18 12 0 24 7 26
14 3 7 12 13 21 13 8 0 15 5 15 11 0 8 6 7 17 -2 11 -10 14 -10 9 -1 -4 7 -1
12 8 12 9 0 16 5 16 11 0 5 5 7 10 4 6 -3 10 -1 10 4 0 6 9 11 20 11 11 0 23
6 26 14 3 8 12 12 20 9 17 -6 19 13 2 21 -7 3 -4 5 7 5 36 -2 46 1 40 11 -6 9
8 14 28 11 4 0 7 4 7 9 0 5 5 9 12 7 7 -1 12 3 13 10 0 6 4 15 9 20 5 5 6 3 2
-4 -4 -7 -2 -13 3 -13 6 0 11 5 11 10 0 6 10 10 21 10 17 0 19 3 10 14 -9 11
-6 13 14 11 26 -3 34 10 13 18 -8 3 -6 6 5 6 21 1 58 21 73 40 7 9 16 11 24 6
10 -6 12 -4 7 9 -5 14 -3 17 8 12 8 -3 15 -1 15 5 0 6 5 7 10 4 6 -3 10 -1 10
5 0 6 5 8 13 4 7 -5 7 -1 -3 12 -8 10 -10 16 -6 12 5 -4 15 0 23 10 10 11 12
12 8 2 -4 -10 -2 -9 8 2 8 10 17 15 20 11 4 -3 7 -1 7 6 0 7 5 9 10 6 6 -3 10
1 10 10 0 9 5 13 10 10 6 -3 10 1 10 10 0 9 4 14 9 10 5 -3 12 4 16 14 4 13
11 18 22 14 12 -5 15 -2 10 9 -4 12 0 15 19 13 25 -2 33 10 12 18 -7 3 -2 6
11 6 18 1 21 4 13 14 -8 10 -6 13 10 14 24 2 40 22 31 38 -4 5 -3 7 2 3 4 -4
14 0 22 10 8 9 11 11 7 3 -5 -9 -3 -12 4 -7 7 4 12 15 12 24 0 15 2 15 10 2 8
-13 10 -12 10 3 0 9 5 17 11 17 5 0 7 5 4 11 -4 6 2 13 14 16 11 3 18 9 15 14
-3 5 2 9 10 9 9 0 16 5 16 11 0 5 -5 7 -12 3 -7 -4 -8 -3 -4 5 4 6 12 9 17 6
5 -4 9 -1 9 5 0 6 4 9 9 6 5 -3 11 3 14 14 3 11 13 20 24 20 15 0 16 2 3 10
-13 8 -12 10 3 10 9 0 17 8 17 18 0 14 2 15 10 2 8 -12 10 -11 10 7 0 13 5 22
13 20 6 -1 11 6 11 15 -1 10 4 14 12 11 8 -3 14 1 14 11 0 9 5 16 10 16 6 0
10 7 10 15 0 8 5 15 11 15 5 0 7 4 4 10 -4 6 1 7 11 3 13 -5 16 -3 11 10 -6
16 4 22 27 18 5 -1 3 5 -4 14 -11 13 -10 15 3 10 8 -4 18 -1 23 6 4 8 3 10 -4
5 -7 -4 -12 -1 -12 8 0 10 6 13 17 9 10 -4 14 -2 10 4 -4 6 0 18 8 26 8 9 15
22 15 29 0 10 3 9 10 -2 8 -13 10 -13 11 3 3 32 4 37 10 35 8 -4 39 28 39 40
0 5 7 15 15 22 13 11 13 15 3 21 -10 7 -9 9 4 9 9 0 20 5 24 12 5 7 3 8 -6 3
-9 -6 -11 -4 -6 4 5 7 15 10 23 6 13 -4 14 -3 3 10 -10 12 -10 15 4 15 10 0
14 4 11 10 -3 5 -1 18 5 27 11 17 11 17 6 0 -3 -11 -2 -15 4 -12 6 3 10 13 10
22 0 9 8 22 18 30 11 10 12 12 2 8 -10 -4 -9 -2 2 8 10 8 15 17 11 20 -3 4 -1
7 5 7 6 0 9 9 7 21 -3 17 -1 19 10 9 11 -9 13 -6 11 14 -2 17 2 26 11 26 8 0
11 5 8 10 -3 5 -1 10 4 10 6 0 10 3 10 8 -1 4 0 16 1 27 2 17 3 17 10 -5 l8
-25 2 25 c2 14 3 33 3 42 0 10 4 15 8 12 8 -5 13 10 10 28 0 5 6 8 15 8 14 0
15 2 3 17 -10 11 -10 14 -1 9 7 -4 12 -2 12 6 0 19 23 68 33 68 4 0 7 5 7 12
0 6 8 20 17 30 16 18 16 18 -2 12 -15 -6 -15 -4 4 15 12 12 20 29 17 37 -3 9
-1 12 4 9 6 -4 10 5 10 20 0 18 4 24 13 19 8 -5 7 -2 -2 9 -12 15 -12 17 2 11
12 -4 15 -1 12 15 -2 12 0 21 5 21 5 0 6 7 3 17 -4 11 -3 14 5 9 12 -7 17 11
13 43 -2 7 2 10 8 7 5 -4 13 -1 17 5 4 7 3 9 -4 5 -6 -3 -13 -2 -17 4 -3 5 0
10 8 10 9 0 13 10 12 30 -1 21 1 27 10 20 8 -7 11 -1 9 20 -1 17 3 30 9 30 7
0 5 5 -3 10 -13 8 -12 10 3 10 20 0 22 20 5 39 -10 11 -10 13 0 7 7 -5 12 -1
12 11 0 15 2 16 10 3 6 -9 10 -10 10 -3 0 6 -5 15 -11 19 -8 4 -7 9 2 15 8 4
15 17 15 29 1 11 2 32 3 48 1 18 4 23 9 14 6 -8 9 3 10 30 1 24 7 45 12 46 6
2 10 13 10 23 0 13 -5 18 -12 14 -7 -4 -4 1 6 9 11 9 16 16 12 16 -5 0 -3 7 4
15 9 11 9 15 1 15 -8 0 -9 6 -3 18 5 9 7 23 4 31 -2 8 -1 11 4 8 5 -3 9 24 9
60 0 36 4 67 9 70 5 4 6 1 2 -5 -3 -6 -3 -13 1 -15 5 -3 9 16 10 41 3 115 8
170 14 166 9 -5 6 17 -4 33 -4 6 -3 14 3 18 15 9 11 485 -4 485 -6 0 -5 4 3 9
9 6 11 15 6 27 -12 29 -14 45 -5 39 9 -5 7 10 -3 35 -4 8 -8 50 -10 92 -2 47
-9 84 -18 94 -9 12 -10 15 -1 10 6 -4 12 -3 12 1 0 5 -6 15 -12 22 -11 11 -10
12 1 6 10 -6 12 -4 5 6 -11 18 -16 38 -15 67 1 13 -3 21 -7 18 -5 -3 -9 1 -9
9 0 8 4 15 9 15 5 0 6 5 3 10 -4 6 -9 23 -11 37 -3 15 -11 31 -17 35 -11 7 -2
12 16 9 5 -1 6 3 2 9 -3 6 -11 8 -16 5 -5 -4 -9 12 -9 34 0 21 -5 41 -10 43
-6 2 -11 20 -12 40 -1 22 -5 35 -11 31 -6 -4 -8 0 -4 10 3 9 1 17 -5 19 -5 2
-10 20 -10 41 0 20 -4 37 -10 37 -5 0 -6 5 -3 10 3 6 1 10 -6 10 -7 0 -9 3 -6
7 4 3 2 12 -4 20 -9 9 -8 13 0 13 7 0 3 10 -8 22 -17 17 -18 24 -8 37 10 12 9
14 -5 8 -10 -3 -17 -3 -17 1 4 28 -3 82 -10 78 -5 -3 -12 1 -15 10 -5 12 -2
15 11 10 10 -3 6 3 -9 15 -20 14 -28 30 -28 50 0 22 -4 28 -12 23 -9 -5 -9 -2
1 9 9 11 10 17 2 17 -6 0 -11 7 -11 16 0 9 -5 12 -12 8 -8 -5 -7 0 2 11 8 10
10 16 3 12 -8 -5 -14 4 -18 27 -4 19 -16 44 -27 55 -10 12 -20 30 -21 41 -1
11 -7 20 -14 20 -7 0 -13 9 -13 19 0 11 -4 23 -10 26 -5 3 -10 15 -10 25 0 10
-7 25 -15 34 -8 8 -15 20 -15 26 0 6 -4 8 -10 5 -6 -4 -10 7 -10 24 0 17 -5
31 -11 31 -5 0 -7 -5 -3 -12 4 -7 3 -8 -5 -4 -6 4 -8 12 -5 18 4 6 2 13 -5 17
-6 4 -12 19 -13 33 -1 15 -6 24 -10 22 -5 -3 -5 -11 -2 -17 4 -7 3 -8 -2 -4
-5 5 -9 18 -9 30 -1 13 -6 21 -15 19 -11 -3 -11 0 0 13 11 13 10 15 -4 9 -11
-4 -16 -1 -16 11 0 9 -4 13 -10 10 -5 -3 -10 3 -10 15 0 13 -4 19 -12 14 -6
-4 -8 -3 -4 4 3 6 -1 17 -10 26 -8 9 -16 25 -17 36 -1 22 -13 27 -20 8 -3 -7
-6 -3 -6 8 -1 12 -7 27 -15 33 -8 7 -13 21 -11 32 2 11 0 17 -6 14 -5 -4 -7
-10 -4 -15 3 -5 1 -12 -5 -15 -6 -4 -10 -3 -9 2 1 4 1 19 0 33 -1 20 -3 22
-11 10 -9 -13 -10 -13 -11 0 -1 8 -1 18 0 23 0 4 -3 7 -9 7 -5 0 -10 7 -10 15
0 8 -9 19 -20 25 -11 6 -17 16 -14 22 4 6 3 8 -3 5 -6 -4 -17 1 -24 10 -12 14
-12 16 1 8 8 -4 6 1 -5 12 -13 14 -22 16 -27 9 -12 -17 -9 3 3 27 7 12 8 19 4
15 -10 -9 -47 10 -40 21 2 5 -8 15 -24 22 -27 14 -31 18 -31 40 0 5 -4 7 -10
4 -9 -5 -15 9 -7 18 5 7 -33 37 -47 37 -10 0 -13 6 -9 15 3 9 1 15 -5 13 -5
-2 -21 9 -35 24 -14 15 -28 24 -31 20 -4 -3 -4 2 0 12 5 13 4 17 -3 13 -6 -4
-14 0 -17 9 -3 9 -11 12 -18 8 -8 -5 -9 -2 -5 10 5 13 3 17 -5 13 -15 -5 -40
17 -31 27 4 3 -5 6 -18 6 -16 0 -20 3 -11 8 9 6 5 12 -13 20 -17 8 -23 17 -19
25 5 7 0 6 -11 -3 -17 -14 -18 -13 -12 3 4 11 2 17 -8 17 -8 0 -15 5 -15 11 0
5 -4 7 -10 4 -5 -3 -10 3 -10 14 0 12 -7 21 -15 21 -8 0 -15 4 -15 9 0 10 -39
27 -53 23 -5 -1 -6 2 -3 6 8 13 -30 45 -43 37 -7 -3 -8 0 -5 9 4 11 0 16 -11
16 -9 0 -23 7 -32 15 -8 8 -20 12 -26 8 -7 -3 -9 -3 -5 2 7 7 -14 35 -27 35
-4 0 -13 7 -22 15 -8 8 -19 13 -24 10 -5 -4 -9 1 -9 9 0 9 -5 16 -11 16 -5 0
-7 -5 -3 -12 5 -7 3 -8 -5 -4 -7 5 -10 10 -7 13 8 8 -21 33 -38 33 -9 0 -16 5
-16 10 0 6 -11 10 -25 10 -19 0 -23 4 -18 17 4 11 3 14 -5 9 -7 -4 -12 -2 -12
6 0 9 -3 9 -10 -2 -8 -13 -10 -12 -10 3 0 9 -7 17 -15 17 -8 0 -15 5 -15 10 0
6 -3 9 -7 8 -5 -1 -18 3 -29 10 -12 6 -24 8 -28 5 -3 -3 -6 -1 -6 5 0 7 -7 12
-16 12 -9 0 -12 5 -8 13 5 7 0 6 -11 -3 -10 -8 -16 -10 -13 -5 4 6 3 17 -3 25
-5 8 -9 10 -9 4 0 -6 -7 -11 -15 -11 -11 0 -12 4 -3 14 8 11 7 12 -6 7 -9 -3
-16 -1 -16 6 0 6 -4 8 -10 5 -5 -3 -10 -1 -10 4 0 6 -4 10 -8 9 -10 -4 -84 33
-93 46 -4 4 -9 2 -12 -5 -4 -10 -6 -10 -6 -1 -1 6 -10 12 -21 12 -11 0 -20 5
-20 11 0 5 -4 8 -9 4 -6 -3 -14 3 -20 12 -6 10 -11 12 -11 6 0 -7 -5 -13 -10
-13 -6 0 -9 6 -8 13 2 7 -6 12 -19 11 -25 -1 -31 11 -10 19 6 3 2 4 -10 4 -12
-1 -19 -5 -16 -10 3 -5 -4 -3 -16 5 -12 7 -21 17 -21 22 0 4 -7 3 -15 -4 -10
-9 -15 -9 -15 -1 0 6 -13 11 -29 11 -17 0 -32 4 -35 9 -4 5 4 7 16 4 13 -3 20
-3 17 0 -6 7 -42 15 -72 16 -12 1 -16 5 -11 14 5 8 2 8 -9 -2 -11 -9 -17 -10
-17 -2 0 6 -12 11 -26 11 -17 0 -24 4 -21 13 3 9 -7 12 -34 11 -22 0 -39 3
-39 8 0 5 -10 6 -21 3 -15 -5 -19 -4 -15 4 5 7 -5 11 -28 11 -20 0 -36 4 -36
10 0 5 -3 9 -7 9 -30 -5 -93 3 -88 10 3 5 0 13 -6 17 -7 4 -9 3 -6 -3 4 -6 0
-14 -9 -17 -24 -9 -31 -7 -14 4 13 8 12 10 -5 11 -11 1 -24 3 -30 4 -5 2 -21
3 -35 4 -20 1 -22 3 -10 11 8 5 10 10 5 10 -6 0 -16 -5 -23 -12 -9 -9 -12 -9
-12 0 0 8 -17 12 -46 12 -27 0 -43 4 -39 10 3 6 2 10 -4 10 -5 0 -11 -6 -14
-12 -3 -9 -10 -7 -26 6 -22 20 -22 20 -16 0 6 -16 5 -17 -7 -4 -8 10 -30 15
-60 14 -28 0 -48 4 -48 10 0 6 -5 4 -10 -4 -8 -12 -10 -12 -11 5 l0 20 -9 -20
c-5 -11 -9 -15 -9 -8 -1 7 -8 10 -18 6 -9 -4 -14 -2 -10 3 3 6 -5 10 -18 10
-13 0 -21 -4 -19 -8 3 -4 1 -8 -5 -8 -5 0 -12 6 -14 13 -4 9 -8 8 -16 -3 -8
-11 -11 -12 -11 -2 0 11 -45 13 -229 11 -127 -2 -228 -6 -225 -10 2 -4 0 -11
-6 -14 -6 -4 -10 -3 -9 2 4 22 -3 25 -20 9 -17 -16 -20 -16 -35 -1 -9 9 -17
13 -17 8z m-169 -33 c0 -5 -8 -10 -17 -10 -15 0 -16 2 -3 10 19 12 20 12 20 0z
m-2570 -1794 c0 -3 -4 -8 -10 -11 -5 -3 -10 -1 -10 4 0 6 5 11 10 11 6 0 10
-2 10 -4z m-417 -1401 c-7 -21 -12 -19 -10 4 0 11 5 18 9 15 4 -3 5 -11 1 -19z
m0 -530 c4 -8 3 -16 -1 -19 -4 -3 -9 4 -9 15 -2 23 3 25 10 4z m1152 -2335 c3
-5 1 -10 -4 -10 -6 0 -11 5 -11 10 0 6 2 10 4 10 3 0 8 -4 11 -10z m3695 -620
c0 -5 -5 -10 -11 -10 -5 0 -7 5 -4 10 3 6 8 10 11 10 2 0 4 -4 4 -10z"/>
<path d="M3210 6989 c0 -5 5 -7 10 -4 6 3 10 8 10 11 0 2 -4 4 -10 4 -5 0 -10
-5 -10 -11z"/>
<path d="M1560 6420 c-9 -6 -10 -10 -3 -10 6 0 15 5 18 10 8 12 4 12 -15 0z"/>
<path d="M575 5440 c-3 -5 -1 -10 4 -10 6 0 11 5 11 10 0 6 -2 10 -4 10 -3 0
-8 -4 -11 -10z"/>
<path d="M335 5020 c-3 -5 -1 -10 4 -10 6 0 11 5 11 10 0 6 -2 10 -4 10 -3 0
-8 -4 -11 -10z"/>
<path d="M1270 790 c0 -5 5 -10 11 -10 5 0 7 5 4 10 -3 6 -8 10 -11 10 -2 0
-4 -4 -4 -10z"/>
</g>
</svg>
